####
#
#	OBJ File Generated by LightWave3D
#	LightWave3D OBJ Export v2.3
#
####
o Dollar Stack wild.obj
mtllib Dollar Stack wild.mtl
g default
v -6.41257 1.04674 1.74275
v -6.37676 1.47371 -2.38914
v -6.36722 1.50085 1.94894
v -6.28975 -0.242027 1.75246
v -6.25858 1.16873 2.20437
v -6.20652 1.22973 -2.8011
v -6.18683 1.96849 1.78666
v -6.15291 1.74484 -2.58472
v -6.13603 0.164612 -2.5002
v -6.11938 1.92782 -2.22673
v -6.08158 1.29072 1.70552
v -6.02795 0.3476 2.03386
v -6.02028 0.823087 2.40472
v -6.01104 -0.435865 -2.71063
v -6.00941 1.00607 -2.67257
v -6.00919 0.225608 1.8827
v -6.00439 0.701095 2.03488
v -5.99644 0.762091 -2.61348
v -5.98795 2.39546 2.5808
v -5.97376 -0.0590395 -2.19274
v -5.97114 0.469591 -2.90788
v -5.96859 0.469591 2.18364
v -5.96835 0.762091 2.47452
v -5.96314 -0.242027 -3.02456
v -5.95549 1.22973 2.10026
v -5.94713 0.408595 -2.30405
v -5.94623 2.21247 1.54307
v -5.93547 1.74484 2.47974
v -5.91323 2.02948 -1.87766
v -5.91295 -0.435865 2.11779
v -5.90991 0.0629522 -2.19429
v -5.89797 1.29072 -2.97441
v -5.89215 2.15147 -2.48275
v -5.87746 2.39546 -2.38382
v -5.87617 0.286604 2.49849
v -5.86924 -0.303023 2.52841
v -5.8672 2.15147 2.56107
v -5.85693 0.225608 -3.53573
v -5.84815 0.823087 -2.6338
v -5.83702 0.640099 -2.42376
v -5.83565 0.579103 1.83341
v -5.83517 2.27347 -2.33228
v -5.82908 0.103616 1.9513
v -5.8277 -0.181031 -2.46134
v -5.82395 1.00607 2.74316
v -5.82377 -0.303023 -2.47541
v -5.8232 1.41271 2.30575
v -5.81634 0.00195635 2.22911
v -5.81276 0.530587 -2.48291
v -5.80854 1.10773 -2.39598
v -5.80505 1.86683 2.39597
v -5.79844 0.286604 -2.81606
v -5.79376 0.164612 2.52857
v -5.7817 1.68384 -2.19653
v -5.7816 1.92782 2.71757
v -5.77644 1.68384 2.51245
v -5.76855 -0.364018 2.37806
v -5.76679 0.408595 2.63581
v -5.76598 1.50085 -2.94093
v -5.75725 1.47371 2.60943
v -5.75684 0.884082 -2.41709
v -5.7341 2.21247 -3.03308
v -5.71749 1.04674 -3.17274
v -5.70536 1.96849 -2.93006
v -5.69937 1.56185 -2.23126
v -5.68662 1.62284 2.06969
v -5.6786 1.41271 -2.50897
v -5.67667 0.945078 2.45314
v -5.67032 1.16873 -2.71305
v -5.66899 2.09048 1.9261
v -5.65457 2.02948 2.19716
v -5.65086 2.33446 2.41082
v -5.65058 1.35172 -2.34874
v -5.64913 1.86683 -2.68564
v -5.64293 -0.120035 -2.52619
v -5.64049 1.56185 2.5895
v -5.62917 2.44463 2.30557
v -5.62208 2.44463 -2.45808
v -5.6211 -0.181031 2.54895
v -5.61687 0.3476 -2.64518
v -5.60688 1.35172 2.6592
v -5.57272 2.09048 -2.90167
v -5.56617 2.27347 2.76179
v -5.55912 0.00195635 -3.00581
v -5.54556 1.10773 2.61587
v -5.53663 0.945078 -2.4211
v -5.5287 1.80583 2.79012
v -5.52806 -0.0590395 2.9008
v -5.51999 1.62284 -2.72677
v -5.51838 0.103616 -3.32353
v -5.49784 1.80583 -2.48304
v -5.49707 0.530587 2.83001
v -5.48103 -0.364018 -2.42367
v -5.43326 0.579103 -3.12173
v -5.40538 0.0629522 2.96247
v -5.3972 0.640099 2.46612
v -5.38621 0.884082 2.85401
v -5.23693 0.701095 -2.71652
v -5.20584 -0.120035 2.53865
v -5.19645 2.33446 -2.53444
v 5.2196 0.762091 -2.68573
v 5.38233 0.0629522 -3.27897
v 5.39209 1.96849 2.72003
v 5.40032 -0.303023 -2.76974
v 5.46091 0.00195635 2.78324
v 5.47741 -0.181031 -2.92504
v 5.50046 0.225608 2.74765
v 5.53236 1.96849 -2.4204
v 5.53927 0.579103 2.28473
v 5.54238 1.68384 -2.93577
v 5.55161 1.00607 -3.0577
v 5.55895 1.50085 2.45889
v 5.58446 1.47371 -2.99106
v 5.61942 2.15147 -2.83467
v 5.63858 0.701095 2.70406
v 5.66296 0.408595 -2.93943
v 5.66589 0.103616 2.87665
v 5.68033 -0.242027 2.66222
v 5.6811 1.22973 -2.57558
v 5.68948 -0.0590395 -3.2882
v 5.70527 1.35172 -2.59348
v 5.70905 1.92782 -2.93543
v 5.71745 1.22973 2.02163
v 5.71852 0.00195635 -2.809
v 5.72906 0.823087 2.18507
v 5.73368 1.04674 2.31367
v 5.73605 2.39546 -2.89924
v 5.75543 0.164612 2.3156
v 5.76238 0.286604 2.08577
v 5.77141 0.225608 -2.23776
v 5.79021 1.74484 -2.51427
v 5.79097 0.469591 -2.63806
v 5.79393 1.29072 2.54573
v 5.80634 1.56185 -3.03986
v 5.81629 -0.242027 -2.3399
v 5.81643 1.68384 1.95236
v 5.82762 0.579103 -2.28157
v 5.82878 0.530587 -2.83832
v 5.82896 2.44463 -2.73511
v 5.84222 0.286604 -2.59042
v 5.84431 2.09048 3.0265
v 5.8508 1.04674 -1.95987
v 5.85099 2.21247 2.31747
v 5.85427 1.16873 2.95996
v 5.86397 2.44463 2.46606
v 5.86803 0.884082 -3.06473
v 5.87688 1.74484 1.93752
v 5.88436 0.469591 2.26227
v 5.8976 -0.303023 2.12869
v 5.89886 2.21247 -2.45722
v 5.90878 0.823087 -2.82145
v 5.91259 -0.435865 -2.71502
v 5.91364 0.408595 2.2576
v 5.91886 2.15147 2.44123
v 5.91923 0.3476 2.64452
v 5.92508 1.50085 -2.04403
v 5.93678 1.86683 -2.77746
v 5.9405 1.47371 2.03085
v 5.94167 1.35172 1.61705
v 5.95216 -0.364018 2.78357
v 5.95541 -0.120035 -2.09805
v 5.95545 2.39546 1.85754
v 5.95654 1.80583 -2.89419
v 5.95941 1.80583 1.90548
v 5.96902 2.02948 -2.56301
v 5.97503 2.33446 -2.49348
v 5.98637 1.62284 2.46727
v 5.99189 -0.435865 2.03175
v 5.99393 2.33446 2.87747
v 5.9991 -0.120035 2.48424
v 6.00039 0.164612 -2.51947
v 6.00123 0.762091 2.17094
v 6.00746 0.530587 2.20709
v 6.01589 1.86683 2.56919
v 6.01838 0.945078 -2.58263
v 6.0225 0.884082 1.9117
v 6.03567 2.27347 -2.67028
v 6.0433 1.41271 2.50298
v 6.04383 0.640099 2.41171
v 6.05667 -0.0590395 1.83184
v 6.06154 2.02948 2.12919
v 6.06462 2.27347 1.92999
v 6.08548 0.640099 -2.74168
v 6.08797 0.3476 -1.91018
v 6.113 1.10773 -2.57859
v 6.11817 -0.364018 -2.11228
v 6.16586 2.09048 -2.12754
v 6.17452 0.0629522 1.92847
v 6.21364 1.62284 -2.13499
v 6.22264 1.00607 1.61539
v 6.24928 1.16873 -1.85702
v 6.26554 1.41271 -2.15413
v 6.27193 0.945078 2.56842
v 6.27476 1.92782 1.90086
v 6.2828 1.10773 2.31029
v 6.32086 -0.181031 2.06807
v 6.3212 1.56185 2.15321
v 6.32372 1.29072 -2.26735
v 6.32947 0.701095 -1.97122
v 6.3676 0.103616 -1.80982
vt 0 0
vt 0 1
vt 1 0
vt 1 1
vn -0.616284 -0.505107 -0.604202
vn -0.580865 0.557337 0.593272
vn -0.561024 -0.597423 0.573007
vn -0.544245 0.647376 -0.533575
vn 0 1 -0
vn 0.548832 0.623519 -0.556783
vn 0.564873 -0.61878 0.545921
vn 0.599642 -0.519967 -0.608329
vn 0.6051 0.540245 0.584798
usemtl Back
s off
f 14/2/1 152/4/8 168/3/7 30/1/3
usemtl Front
s off
f 145/3/9 139/4/6 78/2/4 77/1/2
usemtl Back
s off
f 145/3/9 77/1/2 30/1/3 168/3/7
f 152/4/8 139/4/6 145/3/9 168/3/7
f 78/2/4 139/4/6 152/4/8 14/2/1
f 77/1/2 78/2/4 14/2/1 30/1/3
usemtl Front
s off
f 149/3/5 104/4/5 46/2/5 36/1/5
f 44/3/5 79/4/5 196/2/5 106/1/5
f 24/3/5 4/4/5 118/2/5 135/1/5
f 180/3/5 120/4/5 20/2/5 88/1/5
f 31/3/5 95/4/5 188/2/5 102/1/5
f 84/3/5 48/4/5 105/2/5 124/1/5
f 170/3/5 161/4/5 75/2/5 99/1/5
f 128/3/5 171/4/5 9/2/5 53/1/5
f 52/3/5 35/4/5 129/2/5 140/1/5
f 38/3/5 16/4/5 107/2/5 130/1/5
f 153/3/5 116/4/5 26/2/5 58/1/5
f 49/3/5 92/4/5 173/2/5 138/1/5
f 21/3/5 22/4/5 148/2/5 132/1/5
f 155/3/5 184/4/5 80/2/5 12/1/5
f 117/3/5 200/4/5 90/2/5 43/1/5
f 65/3/5 76/4/5 197/2/5 134/1/5
f 136/3/5 110/4/5 54/2/5 56/1/5
f 167/3/5 189/4/5 89/2/5 66/1/5
f 91/3/5 87/4/5 164/2/5 163/1/5
f 194/3/5 122/4/5 10/2/5 55/1/5
f 174/3/5 157/4/5 74/2/5 51/1/5
f 8/3/5 28/4/5 147/2/5 131/1/5
f 29/3/5 71/4/5 181/2/5 165/1/5
f 154/3/5 114/4/5 33/2/5 37/1/5
f 141/3/5 187/4/5 82/2/5 70/1/5
f 42/3/5 83/4/5 182/2/5 177/1/5
f 162/3/5 127/4/5 34/2/5 19/1/5
f 169/3/5 166/4/5 100/2/5 72/1/5
f 62/3/5 27/4/5 143/2/5 150/1/5
f 64/3/5 7/4/5 103/2/5 108/1/5
f 59/3/5 3/4/5 112/2/5 156/1/5
f 40/3/5 96/4/5 179/2/5 183/1/5
f 172/3/5 101/4/5 18/2/5 23/1/5
f 115/3/5 199/4/5 98/2/5 17/1/5
f 61/3/5 97/4/5 176/2/5 146/1/5
f 190/3/5 111/4/5 15/2/5 45/1/5
f 193/3/5 175/4/5 86/2/5 68/1/5
f 39/3/5 13/4/5 125/2/5 151/1/5
f 50/3/5 85/4/5 195/2/5 185/1/5
f 123/3/5 119/4/5 6/2/5 25/1/5
f 144/3/5 191/4/5 69/2/5 5/1/5
f 73/3/5 81/4/5 159/2/5 121/1/5
f 158/3/5 113/4/5 2/2/5 60/1/5
f 178/3/5 192/4/5 67/2/5 47/1/5
f 32/3/5 11/4/5 133/2/5 198/1/5
f 63/3/5 1/4/5 126/2/5 142/1/5
f 94/3/5 41/4/5 109/2/5 137/1/5
f 160/3/5 186/4/5 93/2/5 57/1/5
